<svg xmlns="http://www.w3.org/2000/svg" xmlns:xlink="http://www.w3.org/1999/xlink" version="1.1" x="0px" y="0px" viewBox="0 0 64 64" enable-background="new 0 0 64 64" xml:space="preserve"><g><path fill="#ffffff" d="M62,44h-8V32c0-1.104-0.896-2-2-2H34V20h10c1.104,0,2-0.896,2-2V6c0-1.104-0.896-2-2-2H20c-1.104,0-2,0.896-2,2v12   c0,1.104,0.896,2,2,2h10v10H12c-1.104,0-2,0.896-2,2v12H2c-1.104,0-2,0.896-2,2v12c0,1.104,0.896,2,2,2h24c1.104,0,2-0.896,2-2V46   c0-1.104-0.896-2-2-2H14V34h36v10H38c-1.104,0-2,0.896-2,2v12c0,1.104,0.896,2,2,2h24c1.104,0,2-0.896,2-2V46   C64,44.896,63.104,44,62,44z M22,8h20v8H22V8z M24,56H4v-8h20V56z M60,56H40v-8h20V56z"/></g></svg>